 <svg
      id="e4873513-a385-46f5-8975-09ea43285dc9"
      data-name="Layer 1"
      xmlns="http://www.w3.org/2000/svg"
      width="223"
      height="300"
      viewBox="500 50 223 474"
    >
      <polygon
        points="601.057 461.529 588.798 461.528 582.965 414.24 601.06 414.241 601.057 461.529"
        fill="#a0616a"
      />
      <path
        d="M580.0404,458.02535h23.64387a0,0,0,0,1,0,0v14.88687a0,0,0,0,1,0,0H565.15355a0,0,0,0,1,0,0v0A14.88686,14.88686,0,0,1,580.0404,458.02535Z"
        fill="#2f2e41"
      />
      <polygon
        points="690.811 427.625 681.753 435.888 645.573 404.885 658.941 392.69 690.811 427.625"
        fill="#a0616a"
      />
      <path
        d="M915.29591,647.30643h23.64388a0,0,0,0,1,0,0V662.1933a0,0,0,0,1,0,0H900.40906a0,0,0,0,1,0,0v0A14.88685,14.88685,0,0,1,915.29591,647.30643Z"
        transform="translate(-439.52766 577.85746) rotate(-42.37303)"
        fill="#2f2e41"
      />
      <path
        d="M827.50184,663.71436a4.47341,4.47341,0,0,1-4.44434-3.856l-10.68286-73.88965a42.89891,42.89891,0,0,1-.15063-11.12061l10.41186-88.97509,66.49805,5.58349-10.03638,84.30567,37.96607,47.33984a4.48912,4.48912,0,0,1-.55518,6.209l-9.55884,8.32519a4.49953,4.49953,0,0,1-6.37646-.46973l-35.97437-42.09765a56.53874,56.53874,0,0,1-11.71924-22.562l-5.13574-20.0293a1.4999,1.4999,0,0,0-2.87036-.11768l-6.793,19.62354,4.29761,86.43115a4.50989,4.50989,0,0,1-4.24463,4.71631l-10.37256.57617Q827.63051,663.71435,827.50184,663.71436Z"
        transform="translate(-238.5 -213)"
        fill="#2f2e41"
      />
      <circle cx="625.95434" cy="128.08067" r="24.56103" fill="#a0616a" />
      <path
        d="M721.797,369.63635a10.05579,10.05579,0,0,0,14.80212,4.31892l32.20332,19.50956-2.50289-16.49956-27.25773-17.6152A10.11027,10.11027,0,0,0,721.797,369.63635Z"
        transform="translate(-238.5 -213)"
        fill="#a0616a"
      />
      <path
        d="M863.31336,502.856h0c-13.04492.00049-26.61987-4.04639-40.3479-12.0293a4.99126,4.99126,0,0,1-2.1709-6.06494l12.769-34.40674-2.9043-40.54053c-.98779-13.79052,5.88721-26.88086,17.51514-33.34912A31.59424,31.59424,0,0,1,875.736,374.8335a33.97516,33.97516,0,0,1,19.57568,22.31l4.09888,14.26075a87.49009,87.49009,0,0,1-1.63745,53.10156l-11.875,33.34131-.30811.18408C885.50916,498.08008,877.36024,502.855,863.31336,502.856Z"
        transform="translate(-238.5 -213)"
        fill="#ccc"
      />
      <path
        d="M738.84461,381.082a4.99665,4.99665,0,0,1,.05329-5.61343l6.2231-8.98822a5.008,5.008,0,0,1,6.41732-1.58971L797.689,388.89129l50.92084-5.10461a14.23294,14.23294,0,0,1,14.85371,9.68A14.14226,14.14226,0,0,1,850.16387,412l-47.48465.48187a29.20591,29.20591,0,0,1-14.30956-3.58864l-47.76518-26.19435A5.01944,5.01944,0,0,1,738.84461,381.082Z"
        transform="translate(-238.5 -213)"
        fill="#ccc"
      />
      <path
        d="M885.62014,524.83843a10.05576,10.05576,0,0,0,.46288-15.41238l11.99337-33.01467-16.53924,3.51025L871.33246,510.7298a10.11027,10.11027,0,0,0,14.28768,14.10863Z"
        transform="translate(-238.5 -213)"
        fill="#a0616a"
      />
      <path
        d="M890.0221,505.63623a4.96759,4.96759,0,0,1-1.71777-.30566l-10.26319-3.76612a5.00811,5.00811,0,0,1-3.15063-5.8125l11.64038-50.69922L868.8014,397.04639a14.22708,14.22708,0,0,1,5.63891-16.8086,14.14225,14.14225,0,0,1,21.27955,8.21875l12.39233,45.84131a29.207,29.207,0,0,1,.12036,14.752l-13.35815,52.813a4.99762,4.99762,0,0,1-4.84766,3.77344h-.00464Z"
        transform="translate(-238.5 -213)"
        fill="#ccc"
      />
      <path
        d="M866.07639,358.41138c1.24542-5.168,1.8609-8.0697,3.09469-13.24056.82632-3.46317-1.667-7.00916-4.79545-8.62753s-6.7549-1.80418-10.25016-2.14678-7.16207-.95358-9.88621-3.202c-3.65739-3.01872-4.70327-8.64152-2.90463-13.0636a14.85471,14.85471,0,0,1,10.67623-8.53664,21.20272,21.20272,0,0,1,13.72679,2.11338c1.6487-3.87357,6.42628-5.55773,10.5308-4.882s7.66912,3.16729,11.0053,5.68586c6.20391,4.68352,12.56973,10.36122,13.94657,18.08221,1.32965,7.45634-2.45248,14.98109-7.51132,20.55483a45.48369,45.48369,0,0,1-26.28237,14.26285A9.30922,9.30922,0,0,1,866.07639,358.41138Z"
        transform="translate(-238.5 -213)"
      />
    </svg>