<svg
      id="b0bc626b-9dec-4bdc-9770-3b94563d3780"
      data-name="Layer 1"
      xmlns="http://www.w3.org/2000/svg"
      width="200"
      height="300"
      viewBox="600 240 340 300"
    >
      <circle cx="815.68569" cy="185.43674" r="26.2388" fill="#ffb8b8" />
      <polygon
        points="737.487 572.021 725.009 568.044 734.412 518.019 752.829 523.889 737.487 572.021"
        fill="#ffb8b8"
      />
      <path
        d="M822.06949,719.65957h25.85365a0,0,0,0,1,0,0v15.9038a0,0,0,0,1,0,0H806.76037a0,0,0,0,1,0,0v-.59467A15.30912,15.30912,0,0,1,822.06949,719.65957Z"
        transform="matrix(0.95277, 0.30368, -0.30368, 0.95277, 151.96866, -373.86445)"
        fill="#2f2e41"
      />
      <polygon
        points="828.277 571.762 815.179 571.762 808.946 521.244 828.277 521.244 828.277 571.762"
        fill="#ffb8b8"
      />
      <path
        d="M805.22944,568.02005h25.85365a0,0,0,0,1,0,0v15.9038a0,0,0,0,1,0,0H789.92032a0,0,0,0,1,0,0v-.59467A15.30912,15.30912,0,0,1,805.22944,568.02005Z"
        fill="#2f2e41"
      />
      <path
        d="M935.96125,712.34529l-4.42042-.65967c-13.407-1.99756-14.20971-2.11719-16.33813-3.05176-1.08691-.47754-1.16333-7.69336-.51074-48.25586.47876-29.77441,1.075-66.82959-.08252-86.72265a3.4994,3.4994,0,0,0-6.70313-1.18067c-9.97558,23.03711-26.71215,74.59034-37.78711,108.7041-3.85229,11.8667-6.895,21.23926-8.82006,26.85743a4.52376,4.52376,0,0,1-5.35352,2.898c-9.114-2.27832-8.50464-3.24707-21.4856-6.6045a4.48877,4.48877,0,0,1-3.28173-5.28173c2.3479-11.07227,45.31445-190.59961,48.60327-207.66553a4.50167,4.50167,0,0,1,5.30517-3.57178c9.67383,1.94922,15.55909,4.01709,25.1189,6.0166,10.31543,2.15772,20.98218,4.38916,31.38647,6.47168h0a4.46283,4.46283,0,0,1,2.61915,1.60547c2.57446,3.25147,6.39184,5.07666,10.43359,7.00879,2.72485,1.30273-3.44971,1.18533-1.07666,3.064,9.60986,7.6074-4.20947,162.08759-12.55957,196.97754a4.51511,4.51511,0,0,1-5.04736,3.39063Z"
        transform="translate(-108.06818 -156.97712)"
        fill="#2f2e41"
      />
      <path
        d="M928.05225,537.257a9.49736,9.49736,0,0,1,8.89631-11.52991l21.20757-23.938,13.16966,15.91049-24.389,17.81707a9.54884,9.54884,0,0,1-18.88457,1.74031Z"
        transform="translate(-108.06818 -156.97712)"
        fill="#ffb8b8"
      />
      <path
        d="M934.93759,365.3736c-1.53189-6.50011,6.21217-20.48653,4.68028-26.98664-1.03742-4.402-11.38856-1.4096-13.8042-5.233s-6.46185-6.92091-10.98413-6.97166c-5.198-.05834-10.31283,3.79747-15.23683,2.131-4.97869-1.685-6.57-8.50289-4.36888-13.27591s6.94277-7.81448,11.62748-10.19776c7.97753-4.05846,17.26629-7.02215,25.80456-4.337,5.16141,1.62317,9.477,5.14032,13.65329,8.58028,3.80691,3.13569,7.67786,6.34248,10.33909,10.49494,5.21345,8.13482,4.89891,19.09553.44363,27.66908s-12.57337,14.86515-21.51862,18.51725"
        transform="translate(-108.06818 -156.97712)"
        fill="#2f2e41"
      />
      <path
        d="M870.50934,516.64021c2.832-4.731,7.13159-26.89746,12.43384-64.10352,3.60986-25.39892,6.75513-51.20605,8.31567-64.38867a6.33874,6.33874,0,0,1,3.55957-5.00146q1.51905-.73316,3.02-1.3877c12.9231-5.62109,26.01978-7.4834,38.92407-5.53613a70.61888,70.61888,0,0,1,34.91895,15.91113l.11743.11084.03027.15821c.05616.293,5.47584,29.498-5.625,49.22949-10.94824,19.46875-11.07592,71.02637-11.07592,71.54492v.6626l-.63745-.18164c-17.032-4.8667-82.825,3.64746-83.4878,3.73437l-1.02441.13379Z"
        transform="translate(-108.06818 -156.97712)"
        fill="#ccc"
      />
      <path
        d="M940.4,520.59578l33.457-44.60938-17.25244-36.96972,1.25268-43.84571,14.14429-2.61328.1499.0752a35.60556,35.60556,0,0,1,15.12793,17.62451c3.14185,7.85547,9.65894,34.58105,14.57251,55.61816a32.50067,32.50067,0,0,1-8.7229,30.55762l-41.04248,41.043Z"
        transform="translate(-108.06818 -156.97712)"
        fill="#ccc"
      />
      <path
        d="M799.94639,432.18765a9.4974,9.4974,0,0,1,14.51269-1.21053l31.97725-.49249-2.86124,20.45476-29.60489-5.98505a9.54884,9.54884,0,0,1-14.02381-12.76669Z"
        transform="translate(-108.06818 -156.97712)"
        fill="#ffb8b8"
      />
      <path
        d="M815.99713,450.07966l4.574-20.01562,55.50049-5.39551,15.2146-36.5918.44531-1.08056,5.97974-5.15723.12719-.08008c12.92261-5.6206,26.01856-7.48291,38.92456-5.53613l.45313.06885-.02881.457a36.04753,36.04753,0,0,1-3.53882,13.48584c-5.74121,11.9082-41.06421,62.52881-41.42041,63.03857l-.15747.22559Z"
        transform="translate(-108.06818 -156.97712)"
        fill="#ccc"
      />
    </svg>