<?xml version="1.0" ?><svg data-name="Layer 1" id="Layer_1" viewBox="0 0 508.33 508.36" xmlns="http://www.w3.org/2000/svg"><defs><style>.cls-1{fill:#f48024;fill-rule:evenodd;}.cls-2{fill:#fff;}</style></defs><title/><path class="cls-1" d="M485,29.72c11.45,15.13,16.61,40.21,19.15,70.7,3.36,45.5,4.71,100.1,6,156.52-1.67,57.47-2.35,115.43-6,156.52-2.88,31.54-9,52.66-19.22,65.47-13,12.79-37.94,23.59-73.5,26.15-43.25,3.69-96.61,3.65-155.48,5.1-65.44-1.12-109.82-.64-156.38-5.08-36.32-2.52-60.08-13.19-74.7-26.07-10.83-14.54-14-30-17-66.24-3.75-41.85-4.58-98.56-6-155.54C4,200.57,4.13,143.44,7.9,100.74,10.43,67.05,14.42,44.4,24.65,30,39,17.77,63.48,11.69,100,8.69c50-5.85,102.06-7,155.88-6.87,55.39.09,108.56,1.67,156,6.34,32,2.56,58.48,8.07,73.07,21.56Z" transform="translate(-1.83 -1.82)"/><rect class="cls-2" height="117.82" transform="translate(-67.32 327.23) rotate(-59.47)" width="25.16" x="242.72" y="162.94"/><rect class="cls-2" height="117.82" transform="translate(-83.05 425.06) rotate(-74.95)" width="25.16" x="225.21" y="207.5"/><rect class="cls-2" height="117.82" transform="translate(-100.13 509.59) rotate(-84.73)" width="25.16" x="218.64" y="250.68"/><rect class="cls-2" height="25.17" width="117.83" x="167.9" y="332.79"/><path class="cls-2" d="M327.7,393.71a58.28,58.28,0,0,1-.2,5.88v.1H139s-5.88,0-5.88-.1h-.2V277H153V379.84H307.57V277H327.7Z" transform="translate(-1.83 -1.82)"/><rect class="cls-2" height="117.83" transform="translate(-52.51 195.29) rotate(-34.29)" width="25.17" x="281.54" y="121.77"/><rect class="cls-2" height="117.82" transform="translate(-24.23 59.48) rotate(-9.85)" width="25.17" x="332.04" y="101.74"/></svg>